<?xml version="1.0" encoding="UTF-8"?>
<svg width="134px" height="134px" viewBox="0 0 134 134" version="1.1" xmlns="http://www.w3.org/2000/svg" xmlns:xlink="http://www.w3.org/1999/xlink">
    <!-- Generator: Sketch 57 (83077) - https://sketch.com -->
    <title>Chart</title>
    <desc>Created with Sketch.</desc>
    <g id="Page-1" stroke="none" stroke-width="1" fill="none" fill-rule="evenodd">
        <g id="Icons" transform="translate(-120.000000, -144.000000)" fill-rule="nonzero">
            <g id="Chart" transform="translate(120.333333, 144.000000)">
                <path d="M131.205674,120.567376 L12.7659574,120.567376 L12.7659574,2.12765957 C12.7659574,0.952624113 11.813617,0 10.6382979,0 C9.46297872,0 8.5106383,0.952624113 8.5106383,2.12765957 L8.5106383,20.0944681 L2.12765957,20.0944681 C0.952340426,20.0944681 0,21.0470922 0,22.2221277 C0,23.3971631 0.952340426,24.3497872 2.12765957,24.3497872 L8.5106383,24.3497872 L8.5106383,40.1889362 L2.12765957,40.1889362 C0.952340426,40.1889362 0,41.1415603 0,42.3165957 C0,43.4916312 0.952340426,44.4442553 2.12765957,44.4442553 L8.5106383,44.4442553 L8.5106383,60.2836879 L2.12765957,60.2836879 C0.952340426,60.2836879 0,61.2363121 0,62.4113475 C0,63.586383 0.952340426,64.5390071 2.12765957,64.5390071 L8.5106383,64.5390071 L8.5106383,80.378156 L2.12765957,80.378156 C0.952340426,80.378156 0,81.3307801 0,82.5058156 C0,83.6808511 0.952340426,84.6334752 2.12765957,84.6334752 L8.5106383,84.6334752 L8.5106383,100.472624 L2.12765957,100.472624 C0.952340426,100.472624 0,101.425248 0,102.600284 C0,103.775319 0.952340426,104.727943 2.12765957,104.727943 L8.5106383,104.727943 L8.5106383,122.695035 C8.5106383,123.870071 9.46297872,124.822695 10.6382979,124.822695 L42.0802837,124.822695 L42.0802837,131.205674 C42.0802837,132.380709 43.0326241,133.333333 44.2079433,133.333333 C45.3832624,133.333333 46.3356028,132.380709 46.3356028,131.205674 L46.3356028,124.822695 L95.5083688,124.822695 L95.5083688,131.205674 C95.5083688,132.380709 96.4607092,133.333333 97.6360284,133.333333 C98.8113475,133.333333 99.7636879,132.380709 99.7636879,131.205674 L99.7636879,124.822695 L131.205674,124.822695 C132.380993,124.822695 133.333333,123.870071 133.333333,122.695035 C133.333333,121.52 132.380993,120.567376 131.205674,120.567376 Z" id="Path" fill="currentColor"></path>
                <path d="M21.9858156,116.312057 C23.1611348,116.312057 24.1134752,115.359433 24.1134752,114.184397 L24.1134752,64.5390071 L42.0802837,64.5390071 L42.0802837,114.184397 C42.0802837,115.359433 43.0326241,116.312057 44.2079433,116.312057 C45.3832624,116.312057 46.3356028,115.359433 46.3356028,114.184397 L46.3356028,84.6334752 L63.1205674,84.6334752 L63.1205674,114.184397 C63.1205674,115.359433 64.0729078,116.312057 65.248227,116.312057 C66.4235461,116.312057 67.3758865,115.359433 67.3758865,114.184397 L67.3758865,82.5058156 C67.3758865,81.3307801 66.4235461,80.378156 65.248227,80.378156 L46.3356028,80.378156 L46.3356028,62.4113475 C46.3356028,61.2363121 45.3832624,60.2836879 44.2079433,60.2836879 L21.9858156,60.2836879 C20.8104965,60.2836879 19.858156,61.2363121 19.858156,62.4113475 L19.858156,114.184397 C19.858156,115.359433 20.8104965,116.312057 21.9858156,116.312057 Z" id="Path" fill="currentColor"></path>
                <path d="M76.5957447,116.312057 C77.7710638,116.312057 78.7234043,115.359433 78.7234043,114.184397 L78.7234043,24.3497872 L95.5083688,24.3497872 L95.5083688,114.184397 C95.5083688,115.359433 96.4607092,116.312057 97.6360284,116.312057 C98.8113475,116.312057 99.7636879,115.359433 99.7636879,114.184397 L99.7636879,44.444539 L117.730496,44.444539 L117.730496,114.184397 C117.730496,115.359433 118.682837,116.312057 119.858156,116.312057 C121.033475,116.312057 121.985816,115.359433 121.985816,114.184397 L121.985816,42.3168794 C121.985816,41.141844 121.033475,40.1892199 119.858156,40.1892199 L99.7636879,40.1892199 L99.7636879,22.2221277 C99.7636879,21.0470922 98.8113475,20.0944681 97.6360284,20.0944681 L76.5957447,20.0944681 C75.4204255,20.0944681 74.4680851,21.0470922 74.4680851,22.2221277 L74.4680851,114.184397 C74.4680851,115.359433 75.4204255,116.312057 76.5957447,116.312057 Z" id="Path" fill="currentColor"></path>
            </g>
        </g>
    </g>
</svg>